<svg version="1.1" id="Layer_1" xmlns="http://www.w3.org/2000/svg" xmlns:xlink="http://www.w3.org/1999/xlink" x="0px" y="0px"
	 viewBox="0 0 521.4 247.4" style="enable-background:new 0 0 521.4 247.4;" xml:space="preserve">
<path style="fill:#FFFFFF;" d="M60.7,121.3h14.2v89.1H60.7V121.3z M60.7,88.2h14.2v18H60.7V88.2z M0,134.6v-13.3h15.2v-13.3
	c0-7.6,1.9-12.3,6.6-16.1c3.8-3.8,10.4-5.7,18-5.7c0.9,0,2.8,0,4.7,0c1.9,0,3.8,0.9,4.7,0.9v12.3c-0.9,0-2.8-0.9-3.8-0.9
	c-1.9,0-2.8,0-3.8,0c-3.8,0-6.6,0.9-8.5,1.9c-1.9,0.9-2.8,3.8-2.8,7.6v12.3h17.1v13.3H30.3v75.8H16.1v-75.8
	C15.2,134.6,0,134.6,0,134.6z"/>
<path style="fill:#FFFFFF;" d="M142.2,196.2c3.8-1.9,5.7-4.7,8.5-7.6c1.9-2.8,3.8-6.6,4.7-11.4c0.9-3.8,1.9-8.5,1.9-12.3c0-3.8,0-7.6-0.9-11.4
	c-0.9-3.8-2.8-7.6-4.7-10.4c-1.9-2.8-4.7-5.7-7.6-7.6c-2.8-1.9-6.6-2.8-11.4-2.8c-4.7,0-8.5,0.9-12.3,2.8c-3.8,1.9-5.7,3.8-8.5,7.6
	c-2.8,3.8-3.8,6.6-4.7,10.4c-0.9,3.8-1.9,7.6-1.9,12.3c0,3.8,0,7.6,0.9,12.3c0.9,3.8,1.9,7.6,3.8,11.4c1.9,2.8,4.7,5.7,7.6,7.6
	c2.8,1.9,7.6,2.8,12.3,2.8C134.6,199.1,139.4,198.1,142.2,196.2 M161.2,237c-6.6,7.6-17.1,10.4-31.3,10.4c-3.8,0-8.5,0-12.3-0.9
	c-4.7-0.9-8.5-2.8-11.4-4.7c-3.8-1.9-6.6-4.7-8.5-8.5c-1.9-3.8-3.8-7.6-3.8-12.3h14.2c0,2.8,0.9,4.7,2.8,6.6
	c1.9,1.9,3.8,3.8,5.7,4.7c1.9,0.9,4.7,1.9,7.6,2.8c2.8,0.9,4.7,0.9,7.6,0.9c4.7,0,8.5-0.9,12.3-2.8c3.8-1.9,5.7-3.8,8.5-6.6
	c1.9-2.8,3.8-6.6,4.7-10.4c0.9-3.8,1.9-8.5,1.9-13.3v-5.7l0,0c-2.8,5.7-6.6,9.5-11.4,12.3c-4.7,2.8-10.4,3.8-16.1,3.8
	c-6.6,0-12.3-0.9-17.1-3.8c-4.7-2.8-9.5-5.7-12.3-9.5c-3.8-3.8-5.7-8.5-7.6-14.2c-1.9-5.7-2.8-11.4-2.8-17.1
	c0-5.7,0.9-10.4,1.9-16.1c0.9-5.7,3.8-10.4,6.6-15.2c2.8-4.7,7.6-8.5,12.3-11.4c5.7-2.8,11.4-4.7,19-4.7c5.7,0,10.4,0.9,15.2,3.8
	c4.7,2.8,8.5,5.7,11.4,11.4l0,0v-13.3h14.2v81.5C171.6,217.1,167.8,228.5,161.2,237"/>
<path style="fill:#FFFFFF;" d="M247.4,210.5v-14.2l0,0c-2.8,5.7-6.6,9.5-12.3,12.3c-4.7,2.8-10.4,3.8-17.1,3.8c-5.7,0-10.4-0.9-14.2-1.9
	c-3.8-1.9-6.6-3.8-9.5-6.6c-2.8-2.8-3.8-6.6-4.7-10.4c-0.9-3.8-1.9-8.5-1.9-13.3v-58.8h14.2v59.7c0,5.7,1.9,9.5,4.7,13.3
	c2.8,2.8,7.6,4.7,13.3,4.7c4.7,0,8.5-0.9,11.4-1.9c2.8-0.9,5.7-3.8,8.5-5.7c1.9-2.8,3.8-5.7,4.7-8.5c0.9-3.8,1.9-6.6,1.9-11.4v-50.2
	h14.2v89.1C261.7,210.5,247.4,210.5,247.4,210.5z"/>
<path style="fill:#FFFFFF;" d="M292.9,121.3v19l0,0c3.8-7.6,7.6-12.3,13.3-16.1c4.7-3.8,11.4-4.7,19.9-4.7v15.2c-5.7,0-10.4,0.9-15.2,2.8
	c-3.8,1.9-7.6,3.8-10.4,6.6c-2.8,2.8-4.7,6.6-5.7,11.4c-0.9,4.7-1.9,9.5-1.9,15.2v39.8h-14.2v-89.1L292.9,121.3L292.9,121.3z"/>
<path style="fill:#FFFFFF;" d="M393.4,148.8c-0.9-2.8-2.8-5.7-5.7-7.6c-1.9-1.9-4.7-3.8-7.6-5.7c-2.8-0.9-6.6-1.9-10.4-1.9
	c-3.8,0-7.6,0.9-10.4,1.9c-2.8,0.9-5.7,2.8-7.6,5.7c-1.9,1.9-3.8,4.7-4.7,7.6s-1.9,6.6-1.9,9.5h51.2
	C395.3,154.5,395.3,150.7,393.4,148.8 M397.2,205.7c-6.6,4.7-15.2,7.6-24.6,7.6c-6.6,0-13.3-0.9-18-3.8c-4.7-1.9-9.5-5.7-13.3-9.5
	c-3.8-3.8-6.6-9.5-7.6-15.2c-1.9-5.7-2.8-12.3-2.8-19c0-6.6,0.9-13.3,2.8-19c1.9-5.7,4.7-10.4,8.5-14.2c3.8-3.8,8.5-7.6,13.3-9.5
	c4.7-1.9,10.4-3.8,17.1-3.8c7.6,0,14.2,1.9,19.9,4.7c4.7,2.8,9.5,7.6,12.3,12.3c2.8,4.7,5.7,10.4,6.6,16.1
	c0.9,5.7,1.9,11.4,1.9,17.1H347c0,3.8,0,7.6,0.9,11.4c0.9,3.8,2.8,6.6,4.7,9.5c1.9,2.8,4.7,4.7,8.5,6.6c3.8,1.9,7.6,2.8,12.3,2.8
	c6.6,0,11.4-1.9,15.2-4.7c3.8-2.8,6.6-7.6,7.6-13.3h14.2C407.7,192.5,403.9,201,397.2,205.7"/>
<path style="fill:#DA1F27;" d="M473.1,238V84.4h-59.7v-37c8.5,0,16.1,0,24.6-1.9c7.6-1.9,15.2-3.8,20.9-7.6c6.6-3.8,11.4-8.5,16.1-15.2
	c4.7-5.7,7.6-13.3,8.5-22.8h37.9v237L473.1,238L473.1,238z"/>
</svg>
